<svg xmlns="http://www.w3.org/2000/svg" viewBox="0 0 1200 800" fill="none">
  <!-- Background -->
  <rect width="1200" height="800" fill="#fdf6f6"/>

  <!-- Navigation -->
  <rect x="0" y="0" width="1200" height="64" fill="white"/>
  <text x="60" y="40" font-family="Georgia, serif" font-size="22" fill="#be185d">LUXE BEAUTY</text>
  <text x="880" y="40" font-family="system-ui, sans-serif" font-size="14" fill="#666">Services</text>
  <text x="970" y="40" font-family="system-ui, sans-serif" font-size="14" fill="#666">About</text>
  <rect x="1050" y="18" width="100" height="32" rx="16" fill="#be185d"/>
  <text x="1080" y="40" font-family="system-ui, sans-serif" font-size="14" fill="white">Book</text>

  <!-- Hero Section -->
  <rect x="0" y="64" width="600" height="400" fill="#fdf6f6"/>
  <rect x="600" y="64" width="600" height="400" fill="#f9d5e5"/>

  <text x="60" y="180" font-family="Georgia, serif" font-size="14" fill="#be185d" letter-spacing="3">SOUTH YARRA</text>
  <text x="60" y="250" font-family="Georgia, serif" font-size="48" font-weight="400" fill="#1a1a1a">Reveal Your</text>
  <text x="60" y="310" font-family="Georgia, serif" font-size="48" font-weight="400" fill="#1a1a1a">Natural Glow</text>
  <text x="60" y="360" font-family="system-ui, sans-serif" font-size="16" fill="#666">Premium beauty treatments in a relaxing environment</text>

  <!-- CTA -->
  <rect x="60" y="400" width="160" height="48" rx="24" fill="#be185d"/>
  <text x="100" y="430" font-family="system-ui, sans-serif" font-size="14" font-weight="500" fill="white">Book Now</text>

  <!-- Services Section -->
  <rect x="0" y="464" width="1200" height="336" fill="white"/>
  <text x="60" y="530" font-family="Georgia, serif" font-size="28" fill="#1a1a1a">Treatments</text>

  <!-- Service Cards -->
  <rect x="60" y="560" width="260" height="180" rx="12" fill="#fdf6f6"/>
  <text x="90" y="620" font-family="Georgia, serif" font-size="18" fill="#1a1a1a">Facials</text>
  <text x="90" y="650" font-family="system-ui, sans-serif" font-size="13" fill="#666">Hydrating &amp; anti-aging</text>
  <text x="90" y="700" font-family="system-ui, sans-serif" font-size="14" fill="#be185d">From $89</text>

  <rect x="340" y="560" width="260" height="180" rx="12" fill="#fdf6f6"/>
  <text x="370" y="620" font-family="Georgia, serif" font-size="18" fill="#1a1a1a">Lash Extensions</text>
  <text x="370" y="650" font-family="system-ui, sans-serif" font-size="13" fill="#666">Classic &amp; volume sets</text>
  <text x="370" y="700" font-family="system-ui, sans-serif" font-size="14" fill="#be185d">From $120</text>

  <rect x="620" y="560" width="260" height="180" rx="12" fill="#fdf6f6"/>
  <text x="650" y="620" font-family="Georgia, serif" font-size="18" fill="#1a1a1a">Nails</text>
  <text x="650" y="650" font-family="system-ui, sans-serif" font-size="13" fill="#666">Gel, SNS &amp; nail art</text>
  <text x="650" y="700" font-family="system-ui, sans-serif" font-size="14" fill="#be185d">From $55</text>

  <rect x="900" y="560" width="260" height="180" rx="12" fill="#fdf6f6"/>
  <text x="930" y="620" font-family="Georgia, serif" font-size="18" fill="#1a1a1a">Brows &amp; Wax</text>
  <text x="930" y="650" font-family="system-ui, sans-serif" font-size="13" fill="#666">Shaping &amp; tinting</text>
  <text x="930" y="700" font-family="system-ui, sans-serif" font-size="14" fill="#be185d">From $25</text>
</svg>