<svg xmlns="http://www.w3.org/2000/svg" viewBox="0 0 1200 800" fill="none">
  <!-- Background -->
  <rect width="1200" height="800" fill="#1a1a1a"/>

  <!-- Navigation -->
  <rect x="0" y="0" width="1200" height="64" fill="#0a0a0a"/>
  <text x="60" y="40" font-family="Georgia, serif" font-size="22" font-weight="400" fill="white">HAUS SALON</text>
  <text x="880" y="40" font-family="system-ui, sans-serif" font-size="14" fill="#888">Services</text>
  <text x="970" y="40" font-family="system-ui, sans-serif" font-size="14" fill="#888">Team</text>
  <rect x="1050" y="18" width="100" height="32" rx="16" fill="white"/>
  <text x="1080" y="40" font-family="system-ui, sans-serif" font-size="14" fill="black">Book</text>

  <!-- Hero Section with image area -->
  <rect x="0" y="64" width="600" height="440" fill="#0a0a0a"/>
  <rect x="600" y="64" width="600" height="440" fill="#2a2a2a"/>

  <text x="60" y="200" font-family="Georgia, serif" font-size="14" fill="#a78bfa" letter-spacing="3">FITZROY</text>
  <text x="60" y="270" font-family="Georgia, serif" font-size="52" font-weight="400" fill="white">Where Style</text>
  <text x="60" y="340" font-family="Georgia, serif" font-size="52" font-weight="400" fill="white">Meets Soul</text>
  <text x="60" y="400" font-family="system-ui, sans-serif" font-size="16" fill="#888">Expert cuts, colour &amp; styling in the heart of Fitzroy</text>

  <!-- CTA -->
  <rect x="60" y="440" width="160" height="48" rx="24" fill="white"/>
  <text x="100" y="470" font-family="system-ui, sans-serif" font-size="14" font-weight="500" fill="black">Book Online</text>

  <!-- Services Section -->
  <rect x="0" y="504" width="1200" height="296" fill="#111111"/>
  <text x="60" y="570" font-family="Georgia, serif" font-size="28" fill="white">Our Services</text>

  <!-- Service Cards -->
  <rect x="60" y="600" width="260" height="160" rx="8" fill="#1a1a1a"/>
  <text x="90" y="650" font-family="Georgia, serif" font-size="18" fill="white">Cuts &amp; Styling</text>
  <text x="90" y="680" font-family="system-ui, sans-serif" font-size="13" fill="#666">From $65</text>

  <rect x="340" y="600" width="260" height="160" rx="8" fill="#1a1a1a"/>
  <text x="370" y="650" font-family="Georgia, serif" font-size="18" fill="white">Colour</text>
  <text x="370" y="680" font-family="system-ui, sans-serif" font-size="13" fill="#666">From $120</text>

  <rect x="620" y="600" width="260" height="160" rx="8" fill="#1a1a1a"/>
  <text x="650" y="650" font-family="Georgia, serif" font-size="18" fill="white">Balayage</text>
  <text x="650" y="680" font-family="system-ui, sans-serif" font-size="13" fill="#666">From $280</text>

  <rect x="900" y="600" width="260" height="160" rx="8" fill="#1a1a1a"/>
  <text x="930" y="650" font-family="Georgia, serif" font-size="18" fill="white">Treatments</text>
  <text x="930" y="680" font-family="system-ui, sans-serif" font-size="13" fill="#666">From $45</text>
</svg>