<svg xmlns="http://www.w3.org/2000/svg" viewBox="0 0 1200 800" fill="none">
  <!-- Background -->
  <rect width="1200" height="800" fill="#0a0a0a"/>

  <!-- Navigation -->
  <rect x="0" y="0" width="1200" height="64" fill="#111111"/>
  <text x="60" y="40" font-family="system-ui, sans-serif" font-size="20" font-weight="600" fill="white">COOL COMFORT</text>
  <text x="860" y="40" font-family="system-ui, sans-serif" font-size="14" fill="#888">Services</text>
  <text x="950" y="40" font-family="system-ui, sans-serif" font-size="14" fill="#888">About</text>
  <rect x="1030" y="18" width="120" height="32" rx="4" fill="#0ea5e9"/>
  <text x="1060" y="40" font-family="system-ui, sans-serif" font-size="14" fill="white">Get Quote</text>

  <!-- Emergency Banner -->
  <rect x="0" y="64" width="1200" height="40" fill="#0ea5e9"/>
  <text x="450" y="90" font-family="system-ui, sans-serif" font-size="14" font-weight="500" fill="white">24/7 Emergency Air Con Service - Call 1300 XXX XXX</text>

  <!-- Hero Section -->
  <text x="60" y="200" font-family="system-ui, sans-serif" font-size="14" fill="#0ea5e9" font-weight="500">HEATING &amp; COOLING SPECIALISTS</text>
  <text x="60" y="260" font-family="system-ui, sans-serif" font-size="48" font-weight="600" fill="white">Stay Comfortable</text>
  <text x="60" y="320" font-family="system-ui, sans-serif" font-size="48" font-weight="600" fill="white">All Year Round</text>
  <text x="60" y="370" font-family="system-ui, sans-serif" font-size="16" fill="#888">Installation, repairs &amp; maintenance for all brands</text>

  <!-- CTA Buttons -->
  <rect x="60" y="410" width="160" height="48" rx="4" fill="#0ea5e9"/>
  <text x="95" y="440" font-family="system-ui, sans-serif" font-size="14" font-weight="500" fill="white">Free Quote</text>
  <rect x="240" y="410" width="140" height="48" rx="4" fill="transparent" stroke="#333" stroke-width="1"/>
  <text x="275" y="440" font-family="system-ui, sans-serif" font-size="14" fill="white">Services</text>

  <!-- Brand Logos Area -->
  <rect x="700" y="150" width="450" height="320" rx="12" fill="#111"/>
  <text x="850" y="280" font-family="system-ui, sans-serif" font-size="14" fill="#666">We Service All Major Brands</text>
  <text x="780" y="340" font-family="system-ui, sans-serif" font-size="20" fill="#444">Daikin • Fujitsu • Mitsubishi</text>
  <text x="810" y="380" font-family="system-ui, sans-serif" font-size="20" fill="#444">Samsung • LG • Panasonic</text>

  <!-- Services Section -->
  <rect x="0" y="500" width="1200" height="300" fill="#111111"/>
  <text x="60" y="560" font-family="system-ui, sans-serif" font-size="24" font-weight="600" fill="white">Our Services</text>

  <rect x="60" y="590" width="260" height="140" rx="8" fill="#1a1a1a"/>
  <text x="90" y="640" font-family="system-ui, sans-serif" font-size="16" font-weight="500" fill="white">Split System Install</text>
  <text x="90" y="670" font-family="system-ui, sans-serif" font-size="13" fill="#666">Supply &amp; installation</text>

  <rect x="340" y="590" width="260" height="140" rx="8" fill="#1a1a1a"/>
  <text x="370" y="640" font-family="system-ui, sans-serif" font-size="16" font-weight="500" fill="white">Ducted Systems</text>
  <text x="370" y="670" font-family="system-ui, sans-serif" font-size="13" fill="#666">Whole home climate</text>

  <rect x="620" y="590" width="260" height="140" rx="8" fill="#1a1a1a"/>
  <text x="650" y="640" font-family="system-ui, sans-serif" font-size="16" font-weight="500" fill="white">Repairs</text>
  <text x="650" y="670" font-family="system-ui, sans-serif" font-size="13" fill="#666">All brands serviced</text>

  <rect x="900" y="590" width="260" height="140" rx="8" fill="#1a1a1a"/>
  <text x="930" y="640" font-family="system-ui, sans-serif" font-size="16" font-weight="500" fill="white">Maintenance</text>
  <text x="930" y="670" font-family="system-ui, sans-serif" font-size="13" fill="#666">Keep it running smooth</text>
</svg>