<svg xmlns="http://www.w3.org/2000/svg" viewBox="0 0 1200 800" fill="none">
  <!-- Background -->
  <rect width="1200" height="800" fill="#0a0a0a"/>

  <!-- Navigation -->
  <rect x="0" y="0" width="1200" height="64" fill="#111111"/>
  <text x="60" y="40" font-family="system-ui, sans-serif" font-size="20" font-weight="600" fill="white">PREMIER AUTO</text>
  <text x="860" y="40" font-family="system-ui, sans-serif" font-size="14" fill="#888">Services</text>
  <text x="950" y="40" font-family="system-ui, sans-serif" font-size="14" fill="#888">About</text>
  <rect x="1030" y="18" width="120" height="32" rx="4" fill="#dc2626"/>
  <text x="1050" y="40" font-family="system-ui, sans-serif" font-size="14" fill="white">Book Service</text>

  <!-- Hero Section -->
  <rect x="0" y="64" width="650" height="380" fill="#0a0a0a"/>
  <rect x="650" y="64" width="550" height="380" fill="#1a1a1a"/>

  <text x="60" y="180" font-family="system-ui, sans-serif" font-size="14" fill="#dc2626" font-weight="500">YOUR LOCAL MECHANICS</text>
  <text x="60" y="250" font-family="system-ui, sans-serif" font-size="48" font-weight="600" fill="white">Expert Car Care</text>
  <text x="60" y="310" font-family="system-ui, sans-serif" font-size="48" font-weight="600" fill="white">You Can Trust</text>
  <text x="60" y="360" font-family="system-ui, sans-serif" font-size="16" fill="#888">Full service workshop in Brunswick</text>

  <!-- CTA Buttons -->
  <rect x="60" y="400" width="160" height="48" rx="4" fill="#dc2626"/>
  <text x="90" y="430" font-family="system-ui, sans-serif" font-size="14" font-weight="500" fill="white">Book Online</text>
  <rect x="240" y="400" width="140" height="48" rx="4" fill="transparent" stroke="#333" stroke-width="1"/>
  <text x="275" y="430" font-family="system-ui, sans-serif" font-size="14" fill="white">Call Us</text>

  <!-- Trust Badges -->
  <g transform="translate(60, 480)">
    <rect width="120" height="70" rx="8" fill="#111"/>
    <text x="20" y="35" font-family="system-ui, sans-serif" font-size="22" font-weight="600" fill="white">25+</text>
    <text x="20" y="55" font-family="system-ui, sans-serif" font-size="11" fill="#666">Years Exp</text>
  </g>
  <g transform="translate(200, 480)">
    <rect width="120" height="70" rx="8" fill="#111"/>
    <text x="20" y="35" font-family="system-ui, sans-serif" font-size="22" font-weight="600" fill="white">5.0</text>
    <text x="20" y="55" font-family="system-ui, sans-serif" font-size="11" fill="#666">Rating</text>
  </g>
  <g transform="translate(340, 480)">
    <rect width="120" height="70" rx="8" fill="#111"/>
    <text x="20" y="35" font-family="system-ui, sans-serif" font-size="22" font-weight="600" fill="white">VACC</text>
    <text x="20" y="55" font-family="system-ui, sans-serif" font-size="11" fill="#666">Member</text>
  </g>

  <!-- Services Section -->
  <rect x="0" y="580" width="1200" height="220" fill="#111111"/>
  <text x="60" y="640" font-family="system-ui, sans-serif" font-size="24" font-weight="600" fill="white">Services</text>

  <rect x="60" y="670" width="180" height="90" rx="6" fill="#1a1a1a"/>
  <text x="85" y="710" font-family="system-ui, sans-serif" font-size="14" fill="white">Log Book Service</text>

  <rect x="260" y="670" width="180" height="90" rx="6" fill="#1a1a1a"/>
  <text x="285" y="710" font-family="system-ui, sans-serif" font-size="14" fill="white">Brake Repairs</text>

  <rect x="460" y="670" width="180" height="90" rx="6" fill="#1a1a1a"/>
  <text x="485" y="710" font-family="system-ui, sans-serif" font-size="14" fill="white">Tyres &amp; Wheels</text>

  <rect x="660" y="670" width="180" height="90" rx="6" fill="#1a1a1a"/>
  <text x="685" y="710" font-family="system-ui, sans-serif" font-size="14" fill="white">Roadworthy</text>

  <rect x="860" y="670" width="180" height="90" rx="6" fill="#1a1a1a"/>
  <text x="885" y="710" font-family="system-ui, sans-serif" font-size="14" fill="white">Air Con Service</text>
</svg>