<svg xmlns="http://www.w3.org/2000/svg" viewBox="0 0 1200 800" fill="none">
  <!-- Background -->
  <rect width="1200" height="800" fill="#faf7f2"/>

  <!-- Navigation -->
  <rect x="0" y="0" width="1200" height="64" fill="#1a1a1a"/>
  <text x="60" y="40" font-family="system-ui, sans-serif" font-size="20" font-weight="600" fill="white">Sunrise Coffee</text>
  <text x="900" y="40" font-family="system-ui, sans-serif" font-size="14" fill="#888">Menu</text>
  <text x="970" y="40" font-family="system-ui, sans-serif" font-size="14" fill="#888">About</text>
  <text x="1040" y="40" font-family="system-ui, sans-serif" font-size="14" fill="#888">Visit Us</text>

  <!-- Hero Section -->
  <rect x="0" y="64" width="600" height="420" fill="#f5ebe0"/>
  <text x="60" y="180" font-family="Georgia, serif" font-size="14" fill="#92400e" letter-spacing="2">SPECIALTY COFFEE</text>
  <text x="60" y="240" font-family="Georgia, serif" font-size="52" font-weight="400" fill="#1a1a1a">Start Your</text>
  <text x="60" y="300" font-family="Georgia, serif" font-size="52" font-weight="400" fill="#1a1a1a">Day Right</text>
  <text x="60" y="350" font-family="system-ui, sans-serif" font-size="16" fill="#666">Artisan coffee and fresh baked goods in Fitzroy</text>

  <!-- CTA -->
  <rect x="60" y="390" width="140" height="48" rx="24" fill="#1a1a1a"/>
  <text x="95" y="420" font-family="system-ui, sans-serif" font-size="14" fill="white">View Menu</text>

  <!-- Hero Image placeholder -->
  <rect x="600" y="64" width="600" height="420" fill="#d4a574"/>

  <!-- Features Section -->
  <rect x="0" y="484" width="1200" height="316" fill="#1a1a1a"/>

  <!-- Feature Cards -->
  <rect x="60" y="530" width="340" height="200" rx="8" fill="#2a2a2a"/>
  <text x="90" y="580" font-family="Georgia, serif" font-size="18" fill="white">Specialty Coffee</text>
  <text x="90" y="610" font-family="system-ui, sans-serif" font-size="13" fill="#888">Single origin beans, roasted locally</text>

  <rect x="430" y="530" width="340" height="200" rx="8" fill="#2a2a2a"/>
  <text x="460" y="580" font-family="Georgia, serif" font-size="18" fill="white">Fresh Pastries</text>
  <text x="460" y="610" font-family="system-ui, sans-serif" font-size="13" fill="#888">Baked fresh every morning</text>

  <rect x="800" y="530" width="340" height="200" rx="8" fill="#2a2a2a"/>
  <text x="830" y="580" font-family="Georgia, serif" font-size="18" fill="white">All Day Brunch</text>
  <text x="830" y="610" font-family="system-ui, sans-serif" font-size="13" fill="#888">Serving 7am - 3pm daily</text>

  <!-- Hours badge -->
  <rect x="1000" y="100" width="160" height="80" rx="8" fill="white"/>
  <text x="1030" y="135" font-family="system-ui, sans-serif" font-size="12" fill="#666">Open Now</text>
  <text x="1030" y="160" font-family="system-ui, sans-serif" font-size="16" font-weight="600" fill="#1a1a1a">7am - 3pm</text>
</svg>