<svg xmlns="http://www.w3.org/2000/svg" viewBox="0 0 1200 800" fill="none">
  <defs>
    <linearGradient id="elecGrad" x1="0%" y1="0%" x2="100%" y2="100%">
      <stop offset="0%" style="stop-color:#1e3a5f"/>
      <stop offset="100%" style="stop-color:#0f172a"/>
    </linearGradient>
  </defs>

  <!-- Dark blue background -->
  <rect width="1200" height="800" fill="url(#elecGrad)"/>

  <!-- Decorative elements -->
  <circle cx="1100" cy="100" r="200" fill="#fbbf24" fill-opacity="0.05"/>
  <circle cx="1000" cy="600" r="300" fill="#fbbf24" fill-opacity="0.03"/>

  <!-- Navigation -->
  <rect x="0" y="0" width="1200" height="80" fill="rgba(15, 23, 42, 0.8)"/>

  <!-- Logo with lightning bolt -->
  <rect x="60" y="25" width="36" height="36" rx="8" fill="#fbbf24"/>
  <text x="70" y="52" font-family="system-ui, sans-serif" font-size="22" fill="#0f172a" font-weight="700">⚡</text>
  <text x="110" y="50" font-family="system-ui, sans-serif" font-size="20" fill="#fff" font-weight="600">VoltPro</text>

  <text x="650" y="48" font-family="system-ui, sans-serif" font-size="13" fill="#94a3b8">Services</text>
  <text x="740" y="48" font-family="system-ui, sans-serif" font-size="13" fill="#94a3b8">About</text>
  <text x="810" y="48" font-family="system-ui, sans-serif" font-size="13" fill="#94a3b8">Reviews</text>

  <!-- Emergency badge -->
  <rect x="920" y="24" width="130" height="38" rx="6" fill="#dc2626"/>
  <text x="943" y="49" font-family="system-ui, sans-serif" font-size="12" fill="#fff" font-weight="600">24/7 EMERGENCY</text>

  <rect x="1060" y="24" width="100" height="38" rx="6" fill="#fbbf24"/>
  <text x="1085" y="49" font-family="system-ui, sans-serif" font-size="13" fill="#0f172a" font-weight="600">Call Us</text>

  <!-- Hero Section -->
  <text x="60" y="180" font-family="system-ui, sans-serif" font-size="12" fill="#fbbf24" font-weight="600" letter-spacing="3">LICENSED ELECTRICIANS • A-GRADE</text>

  <text x="60" y="270" font-family="system-ui, sans-serif" font-size="56" fill="#fff" font-weight="700">Powering</text>
  <text x="60" y="340" font-family="system-ui, sans-serif" font-size="56" fill="#fff" font-weight="700">Melbourne's</text>
  <text x="60" y="410" font-family="system-ui, sans-serif" font-size="56" fill="#fbbf24" font-weight="700">Homes &amp; Business</text>

  <text x="60" y="465" font-family="system-ui, sans-serif" font-size="17" fill="#94a3b8">Professional electrical services for residential &amp; commercial.</text>
  <text x="60" y="490" font-family="system-ui, sans-serif" font-size="17" fill="#94a3b8">Same-day service available. Fully insured.</text>

  <!-- CTAs -->
  <rect x="60" y="530" width="180" height="54" rx="6" fill="#fbbf24"/>
  <text x="105" y="564" font-family="system-ui, sans-serif" font-size="14" fill="#0f172a" font-weight="600">Book Online</text>

  <rect x="260" y="530" width="180" height="54" rx="6" fill="transparent" stroke="#475569" stroke-width="1"/>
  <text x="290" y="564" font-family="system-ui, sans-serif" font-size="14" fill="#fff">0412 345 678</text>

  <!-- Trust indicators -->
  <rect x="700" y="180" width="440" height="280" rx="12" fill="rgba(30, 58, 95, 0.5)" stroke="#334155" stroke-width="1"/>

  <text x="740" y="230" font-family="system-ui, sans-serif" font-size="12" fill="#fbbf24" letter-spacing="2">WHY CHOOSE US</text>

  <rect x="740" y="260" width="360" height="50" rx="6" fill="rgba(15, 23, 42, 0.6)"/>
  <text x="770" y="292" font-family="system-ui, sans-serif" font-size="15" fill="#fff" font-weight="500">✓  Licensed &amp; Fully Insured</text>

  <rect x="740" y="320" width="360" height="50" rx="6" fill="rgba(15, 23, 42, 0.6)"/>
  <text x="770" y="352" font-family="system-ui, sans-serif" font-size="15" fill="#fff" font-weight="500">✓  Upfront Fixed Pricing</text>

  <rect x="740" y="380" width="360" height="50" rx="6" fill="rgba(15, 23, 42, 0.6)"/>
  <text x="770" y="412" font-family="system-ui, sans-serif" font-size="15" fill="#fff" font-weight="500">✓  Same-Day Service Available</text>

  <!-- Services Section -->
  <rect x="0" y="610" width="1200" height="190" fill="#0f172a"/>

  <text x="60" y="665" font-family="system-ui, sans-serif" font-size="12" fill="#fbbf24" letter-spacing="2">OUR SERVICES</text>

  <!-- Service cards -->
  <rect x="60" y="690" width="180" height="80" rx="8" fill="#1e3a5f" stroke="#334155" stroke-width="1"/>
  <text x="85" y="725" font-family="system-ui, sans-serif" font-size="14" fill="#fff" font-weight="500">Rewiring</text>
  <text x="85" y="750" font-family="system-ui, sans-serif" font-size="12" fill="#94a3b8">Complete home</text>

  <rect x="260" y="690" width="180" height="80" rx="8" fill="#1e3a5f" stroke="#334155" stroke-width="1"/>
  <text x="285" y="725" font-family="system-ui, sans-serif" font-size="14" fill="#fff" font-weight="500">Lighting</text>
  <text x="285" y="750" font-family="system-ui, sans-serif" font-size="12" fill="#94a3b8">LED &amp; smart lights</text>

  <rect x="460" y="690" width="180" height="80" rx="8" fill="#1e3a5f" stroke="#334155" stroke-width="1"/>
  <text x="485" y="725" font-family="system-ui, sans-serif" font-size="14" fill="#fff" font-weight="500">Switchboards</text>
  <text x="485" y="750" font-family="system-ui, sans-serif" font-size="12" fill="#94a3b8">Upgrades &amp; safety</text>

  <rect x="660" y="690" width="180" height="80" rx="8" fill="#1e3a5f" stroke="#334155" stroke-width="1"/>
  <text x="685" y="725" font-family="system-ui, sans-serif" font-size="14" fill="#fff" font-weight="500">EV Chargers</text>
  <text x="685" y="750" font-family="system-ui, sans-serif" font-size="12" fill="#94a3b8">Home installation</text>

  <rect x="860" y="690" width="180" height="80" rx="8" fill="#1e3a5f" stroke="#334155" stroke-width="1"/>
  <text x="885" y="725" font-family="system-ui, sans-serif" font-size="14" fill="#fff" font-weight="500">Solar</text>
  <text x="885" y="750" font-family="system-ui, sans-serif" font-size="12" fill="#94a3b8">Panels &amp; batteries</text>

  <rect x="1060" y="690" width="100" height="80" rx="8" fill="#fbbf24"/>
  <text x="1085" y="735" font-family="system-ui, sans-serif" font-size="14" fill="#0f172a" font-weight="600">View</text>
  <text x="1090" y="755" font-family="system-ui, sans-serif" font-size="14" fill="#0f172a" font-weight="600">All →</text>
</svg>