<svg xmlns="http://www.w3.org/2000/svg" viewBox="0 0 1200 800" fill="none">
  <!-- Background -->
  <rect width="1200" height="800" fill="#0a0a0a"/>

  <!-- Navigation -->
  <rect x="0" y="0" width="1200" height="64" fill="#111111"/>
  <text x="60" y="40" font-family="system-ui, sans-serif" font-size="20" font-weight="600" fill="white">GREENSCAPE</text>
  <text x="880" y="40" font-family="system-ui, sans-serif" font-size="14" fill="#888">Services</text>
  <text x="970" y="40" font-family="system-ui, sans-serif" font-size="14" fill="#888">Projects</text>
  <rect x="1050" y="18" width="100" height="32" rx="4" fill="#22c55e"/>
  <text x="1075" y="40" font-family="system-ui, sans-serif" font-size="14" fill="white">Quote</text>

  <!-- Hero with image background -->
  <rect x="0" y="64" width="1200" height="400" fill="#1a2e1a"/>
  <defs>
    <linearGradient id="heroGradL" x1="0%" y1="0%" x2="60%" y2="0%">
      <stop offset="0%" style="stop-color:#0a0a0a"/>
      <stop offset="100%" style="stop-color:rgba(10,10,10,0)"/>
    </linearGradient>
  </defs>
  <rect x="0" y="64" width="1200" height="400" fill="url(#heroGradL)"/>

  <text x="60" y="180" font-family="system-ui, sans-serif" font-size="14" fill="#22c55e" font-weight="500">LANDSCAPE DESIGN &amp; CONSTRUCTION</text>
  <text x="60" y="250" font-family="system-ui, sans-serif" font-size="48" font-weight="600" fill="white">Transform Your</text>
  <text x="60" y="310" font-family="system-ui, sans-serif" font-size="48" font-weight="600" fill="white">Outdoor Space</text>
  <text x="60" y="360" font-family="system-ui, sans-serif" font-size="16" fill="#888">Creating stunning gardens across Melbourne</text>

  <!-- CTA -->
  <rect x="60" y="400" width="160" height="48" rx="4" fill="#22c55e"/>
  <text x="90" y="430" font-family="system-ui, sans-serif" font-size="14" font-weight="500" fill="white">Free Consultation</text>

  <!-- Services Section -->
  <rect x="0" y="464" width="1200" height="336" fill="#111111"/>
  <text x="60" y="530" font-family="system-ui, sans-serif" font-size="24" font-weight="600" fill="white">What We Do</text>

  <rect x="60" y="560" width="260" height="180" rx="8" fill="#1a1a1a"/>
  <text x="90" y="620" font-family="system-ui, sans-serif" font-size="18" font-weight="500" fill="white">Garden Design</text>
  <text x="90" y="650" font-family="system-ui, sans-serif" font-size="13" fill="#666">Custom landscape plans</text>

  <rect x="340" y="560" width="260" height="180" rx="8" fill="#1a1a1a"/>
  <text x="370" y="620" font-family="system-ui, sans-serif" font-size="18" font-weight="500" fill="white">Installation</text>
  <text x="370" y="650" font-family="system-ui, sans-serif" font-size="13" fill="#666">Plants, paving &amp; structures</text>

  <rect x="620" y="560" width="260" height="180" rx="8" fill="#1a1a1a"/>
  <text x="650" y="620" font-family="system-ui, sans-serif" font-size="18" font-weight="500" fill="white">Maintenance</text>
  <text x="650" y="650" font-family="system-ui, sans-serif" font-size="13" fill="#666">Ongoing garden care</text>

  <rect x="900" y="560" width="260" height="180" rx="8" fill="#1a1a1a"/>
  <text x="930" y="620" font-family="system-ui, sans-serif" font-size="18" font-weight="500" fill="white">Irrigation</text>
  <text x="930" y="650" font-family="system-ui, sans-serif" font-size="13" fill="#666">Smart watering systems</text>
</svg>