<svg xmlns="http://www.w3.org/2000/svg" viewBox="0 0 1200 800" fill="none">
  <defs>
    <linearGradient id="mechGrad" x1="0%" y1="0%" x2="100%" y2="100%">
      <stop offset="0%" style="stop-color:#1c1917"/>
      <stop offset="100%" style="stop-color:#0c0a09"/>
    </linearGradient>
  </defs>

  <!-- Dark automotive background -->
  <rect width="1200" height="800" fill="url(#mechGrad)"/>

  <!-- Diagonal accent stripe -->
  <polygon points="950,0 1200,0 1200,200 1050,0" fill="#dc2626"/>
  <polygon points="0,600 200,800 0,800" fill="#dc2626" fill-opacity="0.1"/>

  <!-- Navigation -->
  <rect x="0" y="0" width="1200" height="80" fill="rgba(12, 10, 9, 0.95)"/>

  <!-- Logo -->
  <rect x="60" y="22" width="48" height="44" rx="4" fill="#dc2626"/>
  <text x="72" y="52" font-family="system-ui, sans-serif" font-size="22" fill="#fff" font-weight="900">M</text>
  <text x="125" y="42" font-family="system-ui, sans-serif" font-size="18" fill="#fff" font-weight="700">MOTORCRAFT</text>
  <text x="125" y="58" font-family="system-ui, sans-serif" font-size="10" fill="#a8a29e" letter-spacing="1">AUTO SERVICE</text>

  <text x="650" y="48" font-family="system-ui, sans-serif" font-size="13" fill="#a8a29e">Services</text>
  <text x="740" y="48" font-family="system-ui, sans-serif" font-size="13" fill="#a8a29e">Pricing</text>
  <text x="820" y="48" font-family="system-ui, sans-serif" font-size="13" fill="#a8a29e">Reviews</text>

  <text x="950" y="42" font-family="system-ui, sans-serif" font-size="11" fill="#a8a29e">Call Now</text>
  <text x="950" y="60" font-family="system-ui, sans-serif" font-size="15" fill="#fff" font-weight="600">03 9123 4567</text>

  <rect x="1080" y="24" width="80" height="40" rx="4" fill="#dc2626"/>
  <text x="1097" y="50" font-family="system-ui, sans-serif" font-size="13" fill="#fff" font-weight="600">Book</text>

  <!-- Hero Section -->
  <text x="60" y="180" font-family="system-ui, sans-serif" font-size="12" fill="#dc2626" font-weight="600" letter-spacing="3">TRUSTED LOCAL MECHANICS</text>

  <text x="60" y="280" font-family="system-ui, sans-serif" font-size="68" fill="#fff" font-weight="800">EXPERT</text>
  <text x="60" y="360" font-family="system-ui, sans-serif" font-size="68" fill="#fff" font-weight="800">AUTO</text>
  <text x="60" y="440" font-family="system-ui, sans-serif" font-size="68" fill="#dc2626" font-weight="800">CARE.</text>

  <text x="60" y="495" font-family="system-ui, sans-serif" font-size="17" fill="#a8a29e">Professional car servicing &amp; repairs in Collingwood.</text>
  <text x="60" y="522" font-family="system-ui, sans-serif" font-size="17" fill="#a8a29e">All makes &amp; models. Honest pricing. No surprises.</text>

  <!-- CTAs -->
  <rect x="60" y="560" width="180" height="54" rx="4" fill="#dc2626"/>
  <text x="105" y="594" font-family="system-ui, sans-serif" font-size="14" fill="#fff" font-weight="600">Book Service</text>

  <rect x="260" y="560" width="180" height="54" rx="4" fill="transparent" stroke="#44403c" stroke-width="1"/>
  <text x="300" y="594" font-family="system-ui, sans-serif" font-size="14" fill="#fff">Get a Quote</text>

  <!-- Right side - features -->
  <rect x="650" y="140" width="500" height="380" rx="12" fill="#292524" stroke="#44403c" stroke-width="1"/>

  <text x="700" y="200" font-family="system-ui, sans-serif" font-size="12" fill="#dc2626" letter-spacing="2">WHY CHOOSE US</text>

  <!-- Feature items -->
  <rect x="700" y="230" width="400" height="60" rx="6" fill="#1c1917"/>
  <text x="730" y="268" font-family="system-ui, sans-serif" font-size="15" fill="#fff" font-weight="500">✓  Fixed Price Servicing</text>

  <rect x="700" y="300" width="400" height="60" rx="6" fill="#1c1917"/>
  <text x="730" y="338" font-family="system-ui, sans-serif" font-size="15" fill="#fff" font-weight="500">✓  Same Day Service Available</text>

  <rect x="700" y="370" width="400" height="60" rx="6" fill="#1c1917"/>
  <text x="730" y="408" font-family="system-ui, sans-serif" font-size="15" fill="#fff" font-weight="500">✓  Free Loan Cars</text>

  <rect x="700" y="440" width="400" height="60" rx="6" fill="#1c1917"/>
  <text x="730" y="478" font-family="system-ui, sans-serif" font-size="15" fill="#fff" font-weight="500">✓  Nationwide Warranty</text>

  <!-- Services Section -->
  <rect x="0" y="640" width="1200" height="160" fill="#0c0a09"/>

  <text x="60" y="695" font-family="system-ui, sans-serif" font-size="12" fill="#dc2626" letter-spacing="2">SERVICES</text>

  <!-- Service cards -->
  <rect x="60" y="715" width="170" height="65" rx="4" fill="#1c1917" stroke="#292524" stroke-width="1"/>
  <text x="85" y="750" font-family="system-ui, sans-serif" font-size="14" fill="#fff" font-weight="500">Log Book</text>
  <text x="85" y="768" font-family="system-ui, sans-serif" font-size="11" fill="#a8a29e">From $199</text>

  <rect x="250" y="715" width="170" height="65" rx="4" fill="#1c1917" stroke="#292524" stroke-width="1"/>
  <text x="275" y="750" font-family="system-ui, sans-serif" font-size="14" fill="#fff" font-weight="500">Brakes</text>
  <text x="275" y="768" font-family="system-ui, sans-serif" font-size="11" fill="#a8a29e">Pads &amp; rotors</text>

  <rect x="440" y="715" width="170" height="65" rx="4" fill="#1c1917" stroke="#292524" stroke-width="1"/>
  <text x="465" y="750" font-family="system-ui, sans-serif" font-size="14" fill="#fff" font-weight="500">Tyres</text>
  <text x="465" y="768" font-family="system-ui, sans-serif" font-size="11" fill="#a8a29e">Supply &amp; fit</text>

  <rect x="630" y="715" width="170" height="65" rx="4" fill="#1c1917" stroke="#292524" stroke-width="1"/>
  <text x="655" y="750" font-family="system-ui, sans-serif" font-size="14" fill="#fff" font-weight="500">Diagnostics</text>
  <text x="655" y="768" font-family="system-ui, sans-serif" font-size="11" fill="#a8a29e">Check engine</text>

  <rect x="820" y="715" width="170" height="65" rx="4" fill="#1c1917" stroke="#292524" stroke-width="1"/>
  <text x="845" y="750" font-family="system-ui, sans-serif" font-size="14" fill="#fff" font-weight="500">Roadworthy</text>
  <text x="845" y="768" font-family="system-ui, sans-serif" font-size="11" fill="#a8a29e">RWC certs</text>

  <rect x="1010" y="715" width="150" height="65" rx="4" fill="#dc2626"/>
  <text x="1050" y="755" font-family="system-ui, sans-serif" font-size="14" fill="#fff" font-weight="600">All →</text>
</svg>