<svg xmlns="http://www.w3.org/2000/svg" viewBox="0 0 1200 800" fill="none">
  <defs>
    <linearGradient id="plumbGrad" x1="0%" y1="0%" x2="100%" y2="100%">
      <stop offset="0%" style="stop-color:#1e40af"/>
      <stop offset="100%" style="stop-color:#1e3a8a"/>
    </linearGradient>
  </defs>

  <!-- Blue professional background -->
  <rect width="1200" height="800" fill="#f8fafc"/>

  <!-- Navigation -->
  <rect x="0" y="0" width="1200" height="80" fill="#fff"/>
  <line x1="0" y1="80" x2="1200" y2="80" stroke="#e2e8f0" stroke-width="1"/>

  <!-- Logo -->
  <rect x="60" y="20" width="48" height="48" rx="10" fill="url(#plumbGrad)"/>
  <text x="75" y="52" font-family="system-ui, sans-serif" font-size="22" fill="#fff">💧</text>
  <text x="125" y="42" font-family="system-ui, sans-serif" font-size="20" fill="#1e40af" font-weight="700">FlowRight</text>
  <text x="125" y="60" font-family="system-ui, sans-serif" font-size="10" fill="#64748b" letter-spacing="1">PLUMBING SERVICES</text>

  <text x="600" y="48" font-family="system-ui, sans-serif" font-size="13" fill="#64748b">Services</text>
  <text x="690" y="48" font-family="system-ui, sans-serif" font-size="13" fill="#64748b">Areas</text>
  <text x="765" y="48" font-family="system-ui, sans-serif" font-size="13" fill="#64748b">Reviews</text>

  <!-- Emergency banner -->
  <rect x="880" y="20" width="160" height="48" rx="8" fill="#fef2f2" stroke="#fecaca" stroke-width="1"/>
  <text x="905" y="40" font-family="system-ui, sans-serif" font-size="10" fill="#dc2626" font-weight="600">24/7 EMERGENCY</text>
  <text x="905" y="58" font-family="system-ui, sans-serif" font-size="14" fill="#dc2626" font-weight="700">0412 345 678</text>

  <rect x="1060" y="24" width="100" height="40" rx="8" fill="url(#plumbGrad)"/>
  <text x="1080" y="50" font-family="system-ui, sans-serif" font-size="13" fill="#fff" font-weight="500">Book</text>

  <!-- Hero Section -->
  <rect x="0" y="80" width="1200" height="480" fill="url(#plumbGrad)"/>

  <!-- Wave decoration -->
  <path d="M0,500 Q300,450 600,480 T1200,440 L1200,560 L0,560 Z" fill="#f8fafc"/>

  <!-- Hero content -->
  <text x="60" y="200" font-family="system-ui, sans-serif" font-size="12" fill="#93c5fd" font-weight="600" letter-spacing="3">LICENSED PLUMBERS • MELBOURNE</text>

  <text x="60" y="290" font-family="system-ui, sans-serif" font-size="56" fill="#fff" font-weight="700">Fast, Reliable</text>
  <text x="60" y="360" font-family="system-ui, sans-serif" font-size="56" fill="#fff" font-weight="700">Plumbing You</text>
  <text x="60" y="430" font-family="system-ui, sans-serif" font-size="56" fill="#93c5fd" font-weight="700">Can Trust</text>

  <text x="60" y="485" font-family="system-ui, sans-serif" font-size="17" fill="#bfdbfe">Emergency callouts. Blocked drains. Hot water. Gas fitting.</text>

  <!-- CTAs -->
  <rect x="60" y="515" width="180" height="54" rx="8" fill="#fff"/>
  <text x="100" y="548" font-family="system-ui, sans-serif" font-size="14" fill="#1e40af" font-weight="600">Get Free Quote</text>

  <rect x="260" y="515" width="180" height="54" rx="8" fill="rgba(255,255,255,0.1)" stroke="rgba(255,255,255,0.3)" stroke-width="1"/>
  <text x="295" y="548" font-family="system-ui, sans-serif" font-size="14" fill="#fff" font-weight="500">Call Now →</text>

  <!-- Trust badges floating -->
  <rect x="700" y="200" width="440" height="300" rx="16" fill="rgba(255,255,255,0.1)"/>

  <rect x="740" y="240" width="160" height="100" rx="12" fill="#fff"/>
  <text x="780" y="285" font-family="system-ui, sans-serif" font-size="28" fill="#1e40af" font-weight="700">4.9★</text>
  <text x="775" y="315" font-family="system-ui, sans-serif" font-size="11" fill="#64748b">Google Reviews</text>

  <rect x="920" y="240" width="160" height="100" rx="12" fill="#fff"/>
  <text x="960" y="285" font-family="system-ui, sans-serif" font-size="28" fill="#1e40af" font-weight="700">30min</text>
  <text x="955" y="315" font-family="system-ui, sans-serif" font-size="11" fill="#64748b">Response Time</text>

  <rect x="740" y="360" width="160" height="100" rx="12" fill="#fff"/>
  <text x="780" y="405" font-family="system-ui, sans-serif" font-size="28" fill="#1e40af" font-weight="700">15+</text>
  <text x="770" y="435" font-family="system-ui, sans-serif" font-size="11" fill="#64748b">Years Experience</text>

  <rect x="920" y="360" width="160" height="100" rx="12" fill="#fff"/>
  <text x="960" y="405" font-family="system-ui, sans-serif" font-size="28" fill="#1e40af" font-weight="700">Fixed</text>
  <text x="955" y="435" font-family="system-ui, sans-serif" font-size="11" fill="#64748b">Upfront Pricing</text>

  <!-- Services Section -->
  <rect x="0" y="560" width="1200" height="240" fill="#f8fafc"/>

  <text x="60" y="620" font-family="system-ui, sans-serif" font-size="12" fill="#1e40af" font-weight="600" letter-spacing="2">OUR SERVICES</text>
  <text x="60" y="660" font-family="system-ui, sans-serif" font-size="28" fill="#1e293b" font-weight="700">How We Can Help</text>

  <!-- Service Cards -->
  <rect x="60" y="690" width="260" height="90" rx="12" fill="#fff" stroke="#e2e8f0" stroke-width="1"/>
  <text x="90" y="730" font-family="system-ui, sans-serif" font-size="16" fill="#1e293b" font-weight="600">Blocked Drains</text>
  <text x="90" y="755" font-family="system-ui, sans-serif" font-size="12" fill="#64748b">CCTV &amp; jet blasting</text>

  <rect x="340" y="690" width="260" height="90" rx="12" fill="#fff" stroke="#e2e8f0" stroke-width="1"/>
  <text x="370" y="730" font-family="system-ui, sans-serif" font-size="16" fill="#1e293b" font-weight="600">Hot Water</text>
  <text x="370" y="755" font-family="system-ui, sans-serif" font-size="12" fill="#64748b">Repairs &amp; replacement</text>

  <rect x="620" y="690" width="260" height="90" rx="12" fill="#fff" stroke="#e2e8f0" stroke-width="1"/>
  <text x="650" y="730" font-family="system-ui, sans-serif" font-size="16" fill="#1e293b" font-weight="600">Gas Fitting</text>
  <text x="650" y="755" font-family="system-ui, sans-serif" font-size="12" fill="#64748b">Licensed gas plumbers</text>

  <rect x="900" y="690" width="260" height="90" rx="12" fill="#fff" stroke="#e2e8f0" stroke-width="1"/>
  <text x="930" y="730" font-family="system-ui, sans-serif" font-size="16" fill="#1e293b" font-weight="600">Emergency</text>
  <text x="930" y="755" font-family="system-ui, sans-serif" font-size="12" fill="#64748b">24/7 available</text>
</svg>