<svg xmlns="http://www.w3.org/2000/svg" viewBox="0 0 1200 800" fill="none">
  <!-- Background -->
  <rect width="1200" height="800" fill="#0a0a0a"/>

  <!-- Navigation -->
  <rect x="0" y="0" width="1200" height="64" fill="#111111"/>
  <text x="60" y="40" font-family="system-ui, sans-serif" font-size="20" font-weight="600" fill="white">APEX PLUMBING</text>
  <text x="880" y="40" font-family="system-ui, sans-serif" font-size="14" fill="#888">Services</text>
  <text x="970" y="40" font-family="system-ui, sans-serif" font-size="14" fill="#888">Areas</text>
  <rect x="1050" y="18" width="100" height="32" rx="4" fill="#3b82f6"/>
  <text x="1070" y="40" font-family="system-ui, sans-serif" font-size="14" fill="white">Call Now</text>

  <!-- Emergency Banner -->
  <rect x="0" y="64" width="1200" height="40" fill="#3b82f6"/>
  <text x="500" y="90" font-family="system-ui, sans-serif" font-size="14" font-weight="500" fill="white">24/7 Emergency Plumbing Available - Call 1300 XXX XXX</text>

  <!-- Hero Section -->
  <rect x="0" y="104" width="700" height="380" fill="#0a0a0a"/>
  <text x="60" y="200" font-family="system-ui, sans-serif" font-size="14" fill="#3b82f6" font-weight="500">LICENSED PLUMBERS</text>
  <text x="60" y="260" font-family="system-ui, sans-serif" font-size="48" font-weight="600" fill="white">Melbourne's</text>
  <text x="60" y="320" font-family="system-ui, sans-serif" font-size="48" font-weight="600" fill="white">Trusted Plumbers</text>
  <text x="60" y="370" font-family="system-ui, sans-serif" font-size="16" fill="#888">Fast, reliable plumbing services across Melbourne</text>

  <!-- CTA Buttons -->
  <rect x="60" y="410" width="160" height="48" rx="4" fill="#3b82f6"/>
  <text x="95" y="440" font-family="system-ui, sans-serif" font-size="14" font-weight="500" fill="white">Get Free Quote</text>
  <rect x="240" y="410" width="160" height="48" rx="4" fill="transparent" stroke="#333" stroke-width="1"/>
  <text x="280" y="440" font-family="system-ui, sans-serif" font-size="14" fill="white">Our Services</text>

  <!-- Hero Image Area -->
  <rect x="700" y="104" width="500" height="380" fill="#1a1a1a"/>

  <!-- Trust Badges -->
  <rect x="60" y="480" width="160" height="80" rx="8" fill="#111"/>
  <text x="100" y="515" font-family="system-ui, sans-serif" font-size="24" font-weight="600" fill="white">15+</text>
  <text x="80" y="540" font-family="system-ui, sans-serif" font-size="12" fill="#666">Years Experience</text>

  <rect x="240" y="480" width="160" height="80" rx="8" fill="#111"/>
  <text x="280" y="515" font-family="system-ui, sans-serif" font-size="24" font-weight="600" fill="white">5.0</text>
  <text x="260" y="540" font-family="system-ui, sans-serif" font-size="12" fill="#666">Google Rating</text>

  <rect x="420" y="480" width="160" height="80" rx="8" fill="#111"/>
  <text x="455" y="515" font-family="system-ui, sans-serif" font-size="24" font-weight="600" fill="white">2hr</text>
  <text x="440" y="540" font-family="system-ui, sans-serif" font-size="12" fill="#666">Response Time</text>

  <!-- Services Section -->
  <rect x="0" y="580" width="1200" height="220" fill="#111111"/>
  <text x="60" y="640" font-family="system-ui, sans-serif" font-size="24" font-weight="600" fill="white">Our Services</text>

  <rect x="60" y="670" width="180" height="90" rx="6" fill="#1a1a1a"/>
  <text x="80" y="710" font-family="system-ui, sans-serif" font-size="14" fill="white">Emergency Repairs</text>

  <rect x="260" y="670" width="180" height="90" rx="6" fill="#1a1a1a"/>
  <text x="280" y="710" font-family="system-ui, sans-serif" font-size="14" fill="white">Blocked Drains</text>

  <rect x="460" y="670" width="180" height="90" rx="6" fill="#1a1a1a"/>
  <text x="480" y="710" font-family="system-ui, sans-serif" font-size="14" fill="white">Hot Water</text>

  <rect x="660" y="670" width="180" height="90" rx="6" fill="#1a1a1a"/>
  <text x="680" y="710" font-family="system-ui, sans-serif" font-size="14" fill="white">Gas Fitting</text>
</svg>